Coordinates
version=1
nRows=5
nColumns=63
inDegrees=yes

Units are S.I. units (second, meters, Newtons, ...)
If the header above contains a line with 'inDegrees', this indicates whether rotational values are in degrees (yes) or radians (no).

endheader
time	pelvis_tilt	pelvis_list	pelvis_rotation	pelvis_tx	pelvis_ty	pelvis_tz	hip_flexion_r	hip_adduction_r	hip_rotation_r	knee_angle_r	knee_angle_r_beta	ankle_angle_r	subtalar_angle_r	mtp_angle_r	hip_flexion_l	hip_adduction_l	hip_rotation_l	knee_angle_l	knee_angle_l_beta	ankle_angle_l	subtalar_angle_l	mtp_angle_l	L5_S1_Flex_Ext	L5_S1_Lat_Bending	L5_S1_axial_rotation	L4_L5_Flex_Ext	L4_L5_Lat_Bending	L4_L5_axial_rotation	L3_L4_Flex_Ext	L3_L4_Lat_Bending	L3_L4_axial_rotation	L2_L3_Flex_Ext	L2_L3_Lat_Bending	L2_L3_axial_rotation	L1_L2_Flex_Ext	L1_L2_Lat_Bending	L1_L2_axial_rotation	L1_T12_Flex_Ext	L1_T12_Lat_Bending	L1_T12_axial_rotation	Abs_r3	Abs_r2	Abs_r1	Abs_t1	Abs_t2	neck_flexion	neck_bending	neck_rotation	arm_flex_r	arm_add_r	arm_rot_r	elbow_flex_r	pro_sup_r	wrist_flex_r	wrist_dev_r	arm_flex_l	arm_add_l	arm_rot_l	elbow_flex_l	pro_sup_l	wrist_flex_l	wrist_dev_l
      1.32203390	      0.02807240	      1.58593930	    120.90996255	      0.28044524	      0.59190590	      0.92963598	      0.19219639	     -4.76645857	    -19.96106119	     17.39674830	      0.30363054	     36.77072698	     10.90826065	      0.00000000	     -2.68426056	      3.50815023	     -0.19873809	      6.98431040	      0.12189921	     29.01096215	     11.96097699	      0.00000000	      0.12546771	     -0.41176244	     -1.05624784	      0.23300608	     -0.54764405	     -1.12226333	      0.20613090	     -1.00115920	     -1.12226333	      0.14339704	     -1.00115920	     -0.92421686	      0.11650931	     -0.83966597	     -0.85820137	      0.07169225	     -0.63782002	     -0.79218588	      0.89620330	     -4.65793911	     -5.87453363	      0.00000000	      0.00000000	     27.57542416	      6.76297531	     -5.22547811	     -5.60209372	    -16.05086386	     25.97093183	     45.01951759	     84.35693278	     -6.13559274	     12.06126725	      5.16883894	    -12.12155806	    176.38195514	      1.32392064	     26.31169668	    -24.59250241	      1.61557647
      1.33898305	     -0.00584694	      1.66135184	    120.15846741	      0.28041594	      0.59196595	      0.92740327	      0.27450296	     -4.72279211	    -19.01043682	     17.52659975	      0.30589687	     37.00943141	     10.59911767	      0.00000000	     -3.03947468	      3.55040881	     -0.75624342	      6.57448963	      0.11474649	     29.08949201	     11.70941917	      0.00000000	      0.13586600	     -0.40405513	     -0.97103542	      0.25231675	     -0.53739332	     -1.03172513	      0.22321425	     -0.98241964	     -1.03172513	      0.15528125	     -0.98241964	     -0.84965599	      0.12616517	     -0.82394922	     -0.78896628	      0.07763383	     -0.62588139	     -0.72827656	      0.97047725	     -4.57075242	     -5.40060768	      0.00000000	      0.00000000	     27.77654589	      6.35406012	     -7.24426337	     -5.88859232	    -16.02126420	     25.72178875	     44.36614240	     83.20691284	     -6.62442098	     11.53145504	      4.69384750	    -12.02365080	    181.78196045	      1.15842382	     34.27137889	    -21.86100234	      6.31487464
      1.35593220	     -0.08488042	      1.69259838	    119.26672971	      0.28051264	      0.59202282	      0.92529463	      0.39252268	     -4.67162438	    -17.39470310	     17.69592106	      0.30885209	     36.96188853	      9.32406300	      0.00000000	     -3.37310823	      3.67618893	     -1.36507511	      6.16541557	      0.10760680	     29.07257084	     11.43541203	      0.00000000	      0.14284818	     -0.39923533	     -0.88117131	      0.26528336	     -0.53098299	     -0.93624451	      0.23468528	     -0.97070079	     -0.93624451	      0.16326119	     -0.97070079	     -0.77102489	      0.13264882	     -0.81412069	     -0.71595169	      0.08162345	     -0.61841553	     -0.66087848	      1.02035030	     -4.51622995	     -4.90081046	      0.00000000	      0.00000000	     27.86865898	      6.12944600	     -9.11807560	     -6.15809440	    -16.06235321	     25.54774149	     43.70938053	     82.08535299	     -6.62407445	     11.09006538	      4.03212989	    -12.17006388	    180.46529082	      1.15686687	     40.32351801	    -20.42679785	      7.34978024
      1.37288136	     -0.18013023	      1.70326262	    118.33813003	      0.28049977	      0.59209159	      0.92349143	      0.44345405	     -4.79688583	    -16.67269110	     17.87181758	      0.31192206	     36.77223035	      9.09201530	      0.00000000	     -3.68610038	      3.86978688	     -1.94267664	      5.75699346	      0.10047849	     28.87771383	     10.90289621	      0.00000000	      0.14575361	     -0.39019433	     -0.76948375	      0.27067904	     -0.51895846	     -0.81757648	      0.23945861	     -0.94871850	     -0.81757648	      0.16658181	     -0.94871850	     -0.67329828	      0.13534681	     -0.79568428	     -0.62520554	      0.08328362	     -0.60441102	     -0.57711281	      1.04110349	     -4.41395631	     -4.27963775	      0.00000000	      0.00000000	     27.88081898	      5.52561523	    -11.32248979	     -6.65095881	    -16.11322376	     24.96636288	     43.07150571	     81.25569508	     -6.44968329	      9.89697668	      3.51062609	    -12.44151284	    178.22934464	      1.16459703	     38.95989131	    -19.03890305	      5.91794104
      1.38983051	     -0.26658518	      1.73876536	    117.22467697	      0.28101122	      0.59206080	      0.92188470	      0.61266255	     -4.79184401	    -14.98029214	     18.21292851	      0.31787557	     36.33502610	      7.61278088	      0.00000000	     -3.97406187	      4.06218289	     -2.37951881	      5.38906170	      0.09405687	     28.73209529	     10.04247423	      0.00000000	      0.14543044	     -0.37629679	     -0.67808688	      0.27007887	     -0.50047473	     -0.72046731	      0.23892767	     -0.91492802	     -0.72046731	      0.16621245	     -0.91492802	     -0.59332602	      0.13504671	     -0.76734442	     -0.55094559	      0.08309895	     -0.58288373	     -0.50856516	      1.03879510	     -4.25674457	     -3.77131582	      0.00000000	      0.00000000	     27.83801321	      5.01814981	    -13.01886545	     -6.89455043	    -16.30649543	     25.06833919	     42.29178668	     80.07648845	     -6.08741449	      8.19994473	      2.89899869	    -13.01411782	    172.40378403	      1.25883018	     34.01092909	    -17.73685866	      1.85469443
